<svg width="200" height="36" viewBox="0 0 200 36" fill="none" xmlns="http://www.w3.org/2000/svg">
<path d="M123.232 5.9C120.332 5.9 117.932 8.3 117.932 11.2V16.8C117.932 17.3 118.332 17.6 118.732 17.6C119.132 17.6 119.532 17.3 119.532 16.8V11C119.532 8.9 121.232 7.2 123.332 7.2C125.432 7.2 127.132 8.9 127.132 11V16.8C127.132 17.2 127.432 17.6 127.932 17.6C128.332 17.6 128.732 17.3 128.732 16.8V11.2C128.632 8.3 126.232 5.9 123.232 5.9ZM136.032 5.9C134.532 5.9 133.032 6.5 131.932 7.6C130.832 8.7 130.332 10.2 130.332 11.8C130.332 13.4 130.932 14.9 132.032 16C133.132 17.1 134.632 17.7 136.232 17.7C138.032 17.7 139.932 16.9 141.032 15.4C141.232 15.1 141.232 14.7 140.932 14.5C140.632 14.3 140.332 14.3 140.032 14.6C139.032 15.7 137.732 16.4 136.232 16.4C135.132 16.4 134.032 16 133.232 15.2C132.432 14.4 131.932 13.4 131.932 12.2H141.132C141.532 12.2 141.732 12 141.732 11.7C141.732 10.2 141.132 8.7 140.132 7.6C138.932 6.5 137.532 5.9 136.032 5.9ZM131.832 11C132.032 8.9 133.832 7.2 135.932 7.2C136.932 7.2 137.932 7.6 138.732 8.3C139.532 9 139.932 10 140.032 11H131.832ZM148.432 6.2H146.132V2.4C146.132 2 145.832 1.6 145.432 1.6C145.032 1.6 144.632 1.9 144.632 2.4V6.2H142.632C142.232 6.2 142.032 6.5 142.032 6.8C142.032 7.2 142.232 7.4 142.632 7.4H144.632V16.7C144.632 17.1 145.032 17.4 145.432 17.4C145.832 17.4 146.132 17.1 146.132 16.7V7.5H148.432C148.832 7.5 149.032 7.2 149.032 6.9C149.032 6.5 148.732 6.2 148.432 6.2ZM165.232 6.1C164.832 6 164.432 6.1 164.332 6.5L161.232 14.9L158.532 6.5C158.432 6.2 158.232 6 157.932 6C157.632 6 157.332 6.2 157.332 6.5L154.632 14.9L151.532 6.5C151.332 6.1 151.032 6 150.632 6.1C150.332 6.2 150.132 6.6 150.232 7C151.132 9.6 154.032 17.2 154.032 17.2C154.132 17.5 154.432 17.7 154.732 17.7C155.032 17.7 155.232 17.5 155.332 17.2L158.032 9L160.732 17.2C160.832 17.5 161.032 17.7 161.332 17.7C161.632 17.7 161.932 17.5 162.032 17.2L165.832 7C165.732 6.6 165.532 6.2 165.232 6.1ZM176.332 16C176.432 15.8 176.532 15.8 176.332 16C176.432 15.9 176.432 15.9 176.332 16C176.432 15.9 176.432 15.9 176.332 16C175.632 16.7 176.132 16.2 176.332 16ZM176.332 7.6C175.232 6.5 173.732 5.9 172.132 5.9C170.532 5.9 169.032 6.5 167.932 7.6C166.832 8.7 166.232 10.2 166.232 11.8C166.232 13.4 166.832 14.9 167.932 16C169.032 17.1 170.532 17.7 172.132 17.7C173.732 17.7 175.232 17.1 176.332 16C177.432 14.9 178.032 13.4 178.032 11.8C178.032 10.2 177.432 8.7 176.332 7.6ZM175.332 15C174.532 15.9 173.332 16.3 172.232 16.3C171.032 16.3 169.932 15.8 169.132 15C168.332 14.1 167.932 13 167.932 11.8C167.932 10.6 168.332 9.5 169.132 8.6C169.932 7.8 171.032 7.3 172.232 7.3C173.432 7.3 174.532 7.8 175.332 8.6C176.132 9.5 176.632 10.6 176.632 11.8C176.532 13 176.132 14.1 175.332 15ZM186.032 5.9C185.032 5.9 184.232 6.1 183.432 6.5C182.732 6.9 182.132 7.4 181.632 8.1V6.8C181.632 6.4 181.332 6 180.832 6C180.432 6 180.132 6.3 180.132 6.8V16.8C180.132 17.2 180.432 17.6 180.832 17.6C181.232 17.6 181.632 17.2 181.632 16.8V11.2C181.632 10.1 182.132 9.1 182.932 8.3C183.732 7.6 184.832 7.2 185.932 7.2C186.332 7.2 186.632 6.9 186.632 6.5C186.632 6.2 186.432 5.9 186.032 5.9ZM197.932 16.4L193.132 10.8L197.532 7.2C197.832 7 197.932 6.5 197.632 6.2C197.432 5.9 196.932 5.9 196.632 6.1L190.332 11.1V0.8C190.332 0.4 190.032 0 189.632 0C189.232 0 188.832 0.3 188.832 0.8V16.8C188.832 17.2 189.232 17.6 189.632 17.6C190.032 17.6 190.332 17.2 190.332 16.8V13L191.932 11.7L196.832 17.4C197.032 17.7 197.532 17.7 197.832 17.5C198.032 17.2 198.132 16.7 197.932 16.4Z" fill="#C8D92B"/>
<path d="M103.731 17.9H88.7314C87.0314 17.9 85.7314 16.5 85.7314 14.9C85.7314 13.2 87.1314 11.9 88.7314 11.9H109.131C109.431 11.9 109.731 11.6 109.731 11.3V6.39995C109.731 6.09995 109.431 5.79995 109.131 5.79995H88.8315C83.8315 5.79995 79.7314 9.89995 79.7314 14.9C79.7314 19.9 83.8315 24 88.8315 24H103.831C105.531 24 106.831 25.4 106.831 27C106.831 28.7 105.431 30 103.831 30H80.3314C80.0314 30 79.7314 30.2999 79.7314 30.5999V35.4C79.7314 35.7 80.0314 36 80.3314 36H103.731C108.731 36 112.831 31.9 112.831 26.9C112.831 21.9 108.731 17.9 103.731 17.9ZM32.1314 5.79995C31.8314 5.79995 31.3314 5.99995 31.1314 6.19995L22.4314 14.9C22.3314 15 22.3314 15.2 22.4314 15.3L26.2314 19.1C26.3314 19.2 26.5314 19.2 26.6314 19.1L39.6314 6.09995C39.8314 5.89995 39.8314 5.69995 39.4314 5.69995H32.1314V5.79995ZM26.6314 22.6C26.5314 22.5 26.3314 22.5 26.2314 22.6L22.4314 26.4C22.3314 26.5 22.3314 26.6999 22.4314 26.7999L31.1314 35.5C31.3314 35.7 31.8314 35.9 32.1314 35.9H39.4314C39.7314 35.9 39.8314 35.7 39.6314 35.5L26.6314 22.6ZM67.9314 5.79995H44.5314C44.2314 5.79995 43.9314 6.09995 43.9314 6.39995V35.4C43.9314 35.7 44.2314 36 44.5314 36H49.3314C49.6314 36 49.9314 35.7 49.9314 35.4V23.9H67.9314C72.9314 23.9 77.0314 19.8 77.0314 14.8C77.0314 9.79995 72.9314 5.79995 67.9314 5.79995ZM67.9314 17.9H49.9314V11.9H67.9314C69.6314 11.9 70.9314 13.3 70.9314 14.9C70.9314 16.5 69.6314 17.9 67.9314 17.9Z" fill="#3C434C"/>
<path d="M9.43137 5.80005H0.331371C0.0313708 5.80005 -0.0686291 6.00005 0.131371 6.20005L14.8314 20.9L0.131371 35.6C-0.0686291 35.8 -0.0686291 36 0.331371 36H9.43137C9.73137 36 10.2314 35.8 10.4314 35.6C12.7314 33.3 23.1314 22.9 23.9314 22.1C24.8314 21.2001 24.8314 20.6 23.9314 19.7C23.1314 18.9 12.7314 8.50005 10.4314 6.20005C10.2314 6.00005 9.73137 5.80005 9.43137 5.80005Z" fill="#95B33C"/>
<path d="M18.8314 14.6C19.7314 15.5 19.7314 16.1 18.8314 17C18.5314 17.3 16.4314 19.4 14.0314 21.8L0.131371 35.6C-0.0686291 35.8 -0.0686291 36 0.331371 36H9.43137C9.73137 36 10.2314 35.8 10.4314 35.6C12.7314 33.3 23.1314 22.9 23.9314 22.1C24.8314 21.2 24.8314 20.6 23.9314 19.7C23.6314 19.3 21.4314 17.1 18.8314 14.6Z" fill="#D6DE23"/>
</svg>
